<svg id="svg" xmlns="http://www.w3.org/2000/svg" xmlns:xlink="http://www.w3.org/1999/xlink" width="400" height="129.55223880597015" viewBox="0, 0, 400,129.55223880597015"><g id="svgg"><path id="path0" d="M118.312 16.063 C 111.631 18.370,107.870 24.330,107.914 32.537 C 107.989 46.271,116.606 52.523,128.507 47.479 C 129.261 47.160,129.552 47.313,129.552 48.029 C 129.552 48.840,130.070 48.987,132.388 48.839 L 135.224 48.657 135.390 40.381 C 135.598 30.052,135.803 30.353,128.715 30.576 L 123.284 30.746 123.284 33.433 L 123.284 36.119 126.119 36.301 C 130.823 36.603,130.088 41.331,125.080 42.983 C 117.536 45.473,111.995 34.747,116.222 25.837 C 118.164 21.746,123.689 20.304,128.338 22.676 L 130.658 23.860 132.195 22.033 C 134.127 19.736,134.116 19.535,131.958 17.718 C 128.747 15.016,123.267 14.351,118.312 16.063 M369.978 15.749 C 356.929 19.374,354.719 41.665,366.792 47.889 C 369.881 49.481,375.549 49.616,378.329 48.163 C 380.680 46.934,380.896 46.928,380.896 48.092 C 380.896 48.827,381.486 48.983,383.731 48.839 L 386.567 48.657 386.567 40.000 L 386.567 31.343 380.448 31.173 L 374.328 31.003 374.328 33.710 L 374.328 36.418 377.313 36.418 L 380.299 36.418 380.299 38.792 C 380.299 44.670,370.807 45.122,367.483 39.403 C 361.904 29.802,370.859 17.379,379.542 22.674 C 381.753 24.022,382.531 23.853,384.122 21.680 C 387.021 17.722,377.400 13.688,369.978 15.749 M13.871 16.021 C 13.284 16.393,13.150 20.114,13.274 32.579 L 13.433 48.657 19.701 48.834 C 33.810 49.232,39.104 44.781,39.104 32.521 C 39.104 20.386,33.371 15.503,19.154 15.532 C 16.664 15.537,14.287 15.757,13.871 16.021 M44.851 16.328 C 44.356 16.925,44.204 21.636,44.318 32.909 L 44.478 48.657 54.925 48.657 L 65.373 48.657 65.572 47.253 C 66.140 43.236,65.706 42.985,58.198 42.985 L 51.343 42.985 51.343 39.104 L 51.343 35.224 56.643 35.224 C 62.656 35.224,63.259 34.860,62.837 31.493 L 62.556 29.254 56.950 29.254 L 51.343 29.254 51.343 25.691 L 51.343 22.129 58.060 21.960 L 64.776 21.791 64.776 18.806 L 64.776 15.821 55.160 15.657 C 47.505 15.527,45.402 15.664,44.851 16.328 M74.639 16.866 C 65.798 21.383,67.867 31.398,78.409 35.120 C 84.990 37.444,86.822 39.699,84.115 42.146 C 82.402 43.695,77.889 43.515,74.247 41.751 L 71.452 40.399 70.054 42.024 C 66.810 45.796,71.345 49.178,79.701 49.218 C 87.887 49.257,92.239 45.814,92.239 39.298 C 92.239 34.004,90.352 32.103,82.209 29.190 C 77.754 27.597,75.529 25.740,76.063 24.059 C 76.917 21.369,82.406 20.833,86.647 23.027 C 88.694 24.085,89.227 23.853,90.527 21.339 C 92.914 16.724,81.311 13.457,74.639 16.866 M97.114 15.920 C 96.896 16.139,96.716 23.675,96.716 32.667 L 96.716 49.015 100.040 48.836 L 103.364 48.657 103.306 32.600 C 103.274 23.769,103.105 16.314,102.932 16.033 C 102.561 15.433,97.696 15.339,97.114 15.920 M141.165 16.278 C 141.006 16.694,140.947 24.149,141.035 32.845 L 141.194 48.657 144.179 48.657 L 147.164 48.657 147.333 37.313 L 147.501 25.970 153.345 37.313 L 159.190 48.657 162.674 48.839 C 167.338 49.082,167.169 49.759,166.868 32.065 C 166.575 14.788,166.719 15.522,163.620 15.522 C 159.933 15.522,159.801 15.991,160.127 27.867 L 160.417 38.400 158.959 35.469 C 158.156 33.857,155.348 28.709,152.718 24.030 L 147.937 15.522 144.696 15.522 C 142.633 15.522,141.350 15.797,141.165 16.278 M181.263 16.294 C 180.495 16.855,180.263 17.701,180.404 19.427 L 180.597 21.791 184.925 21.966 L 189.254 22.142 189.385 27.638 C 189.456 30.661,189.524 36.627,189.534 40.896 L 189.552 48.657 192.836 48.657 L 196.119 48.657 196.280 35.373 L 196.441 22.090 200.896 22.090 C 205.820 22.090,206.880 21.035,205.602 17.402 L 205.062 15.868 193.688 15.696 C 185.129 15.567,182.054 15.715,181.263 16.294 M209.381 15.893 C 209.147 16.127,208.955 23.662,208.955 32.637 L 208.955 48.955 212.154 48.955 L 215.352 48.955 215.736 45.286 C 215.947 43.267,216.119 40.178,216.119 38.420 L 216.119 35.224 221.771 35.224 L 227.424 35.224 227.592 41.940 L 227.761 48.657 231.204 48.836 L 234.646 49.015 234.487 32.418 L 234.328 15.821 231.401 15.635 C 227.627 15.396,227.483 15.672,227.472 23.156 L 227.463 29.297 221.642 29.126 L 215.821 28.955 215.522 22.388 L 215.224 15.821 212.515 15.644 C 211.025 15.547,209.615 15.659,209.381 15.893 M241.281 16.313 C 240.770 16.929,240.621 21.486,240.736 32.909 L 240.896 48.657 244.338 48.836 L 247.780 49.015 247.621 32.418 L 247.463 15.821 244.724 15.643 C 242.903 15.525,241.749 15.749,241.281 16.313 M254.129 15.920 C 253.910 16.139,253.731 23.676,253.731 32.668 L 253.731 49.018 256.866 48.837 L 260.000 48.657 259.968 37.463 C 259.940 27.773,260.301 24.145,261.001 27.077 C 261.107 27.522,263.739 32.638,266.850 38.446 L 272.506 49.005 276.104 48.831 L 279.701 48.657 279.701 32.239 L 279.701 15.821 276.716 15.821 L 273.731 15.821 273.433 26.866 L 273.134 37.910 267.477 27.520 C 264.365 21.805,261.458 16.767,261.016 16.326 C 260.197 15.506,254.857 15.192,254.129 15.920 M286.993 15.893 C 286.759 16.127,286.567 23.662,286.567 32.637 L 286.567 48.955 289.831 48.955 L 293.094 48.955 293.263 42.537 C 293.509 33.224,294.697 33.200,300.749 42.384 L 305.080 48.955 308.958 48.955 C 313.738 48.955,313.944 49.865,306.866 39.701 C 299.743 29.474,299.833 31.825,306.246 23.448 C 312.059 15.855,312.102 15.547,307.337 15.532 C 304.054 15.521,303.969 15.595,298.487 23.248 C 293.474 30.247,293.215 30.199,293.005 22.239 L 292.836 15.821 290.127 15.644 C 288.637 15.547,287.227 15.659,286.993 15.893 M315.622 15.920 C 315.403 16.139,315.224 23.662,315.224 32.637 L 315.224 48.955 318.806 48.955 L 322.388 48.955 322.388 32.601 C 322.388 18.239,322.273 16.203,321.444 15.885 C 320.175 15.398,316.119 15.423,315.622 15.920 M328.478 16.239 C 327.658 17.059,327.539 25.722,328.153 39.905 L 328.545 48.955 331.389 48.955 L 334.233 48.955 334.657 44.999 C 334.890 42.823,334.953 37.718,334.796 33.655 C 334.640 29.593,334.574 26.269,334.650 26.269 C 334.727 26.269,337.551 31.373,340.927 37.612 L 347.064 48.955 350.556 48.955 L 354.049 48.955 353.890 32.388 L 353.731 15.821 350.915 15.640 C 347.334 15.409,347.350 15.349,347.582 27.921 C 347.774 38.291,347.661 38.834,346.035 35.373 C 343.874 30.775,335.900 16.402,335.275 15.979 C 334.226 15.270,329.257 15.459,328.478 16.239 M28.622 23.145 C 31.096 24.958,32.237 27.878,32.238 32.407 C 32.240 39.789,30.147 42.497,24.145 42.879 L 20.299 43.124 20.299 32.225 L 20.299 21.325 23.696 21.676 C 25.578 21.870,27.776 22.526,28.622 23.145 M188.453 59.991 C 185.804 62.640,182.258 86.749,184.144 89.289 C 186.104 91.928,187.126 89.771,187.584 82.027 C 187.855 77.451,188.624 72.419,189.748 67.878 C 191.269 61.731,191.382 60.721,190.629 59.968 C 189.563 58.902,189.541 58.903,188.453 59.991 M282.001 59.845 C 281.749 60.252,280.985 62.985,280.302 65.919 L 279.061 71.253 276.191 71.374 C 270.984 71.593,265.745 77.049,264.752 83.285 C 263.685 89.991,271.269 90.767,276.418 84.478 C 277.254 83.457,277.333 83.536,277.612 85.654 C 278.028 88.815,279.639 89.815,282.264 88.541 C 285.724 86.862,286.193 83.443,282.786 84.738 L 281.194 85.344 281.194 81.665 C 281.194 79.463,282.046 74.530,283.319 69.367 C 284.488 64.627,285.302 60.378,285.129 59.926 C 284.736 58.903,282.617 58.848,282.001 59.845 M217.301 62.112 C 216.525 63.563,217.001 65.424,218.275 65.913 C 220.448 66.747,222.929 63.522,221.469 61.762 C 220.417 60.496,218.061 60.693,217.301 62.112 M134.841 63.567 C 134.685 63.723,131.387 63.994,127.512 64.169 C 119.264 64.542,119.403 64.487,119.403 67.405 C 119.403 68.648,118.597 73.644,117.612 78.507 C 115.469 89.088,115.484 88.708,117.164 89.805 C 119.892 91.588,135.522 89.173,135.522 86.969 C 135.522 85.198,134.143 84.878,130.149 85.722 C 128.015 86.173,124.956 86.548,123.351 86.555 L 120.433 86.567 120.833 83.157 C 121.307 79.129,121.413 79.043,126.505 78.527 C 133.882 77.779,136.568 76.608,134.847 74.891 C 134.202 74.248,133.212 74.195,130.149 74.638 C 128.015 74.947,125.285 75.205,124.084 75.212 L 121.899 75.224 122.668 71.913 C 123.642 67.726,122.889 68.143,130.806 67.414 C 138.052 66.747,139.976 65.949,138.532 64.209 C 137.813 63.342,135.473 62.935,134.841 63.567 M161.522 70.000 C 161.395 70.410,161.155 73.299,160.989 76.418 C 160.824 79.537,159.982 85.552,159.118 89.784 C 157.261 98.889,157.298 100.597,159.353 100.597 C 160.976 100.597,161.213 100.038,162.395 93.433 C 163.315 88.286,163.364 88.199,164.900 89.022 C 169.431 91.446,179.104 82.236,179.104 75.498 C 179.104 69.335,173.675 68.211,167.879 73.172 L 165.373 75.317 165.373 73.230 C 165.373 69.731,162.383 67.223,161.522 70.000 M254.602 70.376 C 246.161 74.210,243.674 87.457,251.047 89.308 C 254.123 90.080,260.347 87.231,261.602 84.476 C 262.651 82.174,261.883 82.100,257.850 84.115 C 253.883 86.098,252.014 86.402,250.866 85.254 C 249.608 83.996,250.076 83.323,253.428 81.572 C 262.762 76.695,263.866 66.168,254.602 70.376 M142.452 70.795 C 141.850 72.363,142.053 73.574,143.513 77.124 L 144.909 80.517 142.554 82.796 C 139.250 85.992,137.846 88.092,138.271 89.200 C 138.939 90.940,140.640 90.181,143.503 86.866 C 146.920 82.907,146.812 82.917,150.310 86.269 C 153.278 89.113,154.597 89.534,155.842 88.034 C 156.493 87.250,156.147 86.687,153.527 84.266 C 149.762 80.786,149.748 81.253,153.762 76.551 C 157.229 72.490,157.817 70.298,155.522 69.988 C 154.730 69.880,153.876 70.496,152.984 71.817 C 152.244 72.913,150.839 74.576,149.861 75.513 L 148.082 77.217 146.957 74.579 C 146.339 73.128,145.670 71.470,145.472 70.896 C 145.023 69.593,142.940 69.524,142.452 70.795 M200.106 71.504 C 198.752 72.414,196.936 74.093,196.071 75.236 C 188.495 85.241,193.262 93.610,201.923 85.509 C 203.452 84.079,203.568 84.056,203.912 85.129 C 205.029 88.621,205.375 89.035,207.020 88.845 C 208.397 88.687,208.618 88.420,208.415 87.164 C 208.281 86.343,208.147 82.676,208.116 79.016 C 208.039 69.931,205.706 67.743,200.106 71.504 M215.327 72.388 C 213.736 74.997,212.221 87.701,213.365 88.845 C 215.274 90.753,216.367 89.091,216.869 83.519 C 217.117 80.763,217.587 77.729,217.914 76.777 C 218.798 74.199,218.643 71.822,217.563 71.407 C 216.235 70.898,216.237 70.897,215.327 72.388 M224.597 71.761 C 224.203 72.155,223.866 73.700,223.849 75.194 C 223.832 76.688,223.457 79.925,223.015 82.388 C 221.657 89.969,223.848 91.231,227.435 84.933 C 233.573 74.155,236.472 73.436,237.415 82.458 C 237.953 87.604,241.603 89.668,243.592 85.951 C 244.343 84.549,243.818 83.364,242.645 83.814 C 241.515 84.248,241.145 83.456,240.227 78.638 C 238.653 70.375,232.481 69.792,228.972 77.575 C 227.421 81.015,226.888 80.578,227.808 76.619 C 228.886 71.985,227.090 69.269,224.597 71.761 M257.590 73.397 C 258.057 74.152,254.571 78.053,252.449 79.150 C 250.574 80.120,250.423 79.955,251.415 78.020 C 253.134 74.668,256.717 71.985,257.590 73.397 M204.159 74.304 C 206.228 76.797,200.681 84.758,196.866 84.772 C 195.482 84.777,195.555 83.879,197.227 80.299 C 199.828 74.728,202.554 72.371,204.159 74.304 M175.210 75.180 C 176.076 77.909,172.624 83.021,168.713 84.801 C 165.733 86.157,164.776 85.768,164.776 83.198 C 164.776 78.750,174.075 71.605,175.210 75.180 M277.494 76.778 C 277.842 80.353,270.966 87.042,268.795 85.240 C 267.018 83.766,269.691 77.833,273.072 75.749 C 275.711 74.122,277.270 74.485,277.494 76.778 M192.239 104.784 C 135.396 107.866,116.418 109.654,116.418 111.927 C 116.418 113.087,118.656 113.093,130.448 111.966 C 181.536 107.086,250.031 105.539,275.189 108.696 C 279.513 109.239,280.553 108.976,280.588 107.334 C 280.648 104.526,226.065 102.950,192.239 104.784 " stroke="none" fill="#000000" fill-rule="evenodd"></path></g></svg>